<?xml version="1.0" standalone="no"?><!DOCTYPE svg PUBLIC "-//W3C//DTD SVG 1.1//EN" "http://www.w3.org/Graphics/SVG/1.1/DTD/svg11.dtd"><svg t="1527917173904" class="icon" style="" viewBox="0 0 1024 1024" version="1.1" xmlns="http://www.w3.org/2000/svg" p-id="4390" xmlns:xlink="http://www.w3.org/1999/xlink" width="48" height="48"><defs><style type="text/css"></style></defs><path d="M953.230533 126.627201a31.923757 31.923757 0 0 0-24.50892-7.947639c-2.308811 0.310802-246.154807 23.665316-385.660291-109.890539A31.701755 31.701755 0 0 0 499.149507 8.922224C361.819634 142.300478 116.064429 118.901563 113.622417 118.679562a31.701755 31.701755 0 0 0-34.854171 31.390954v237.052762c0 512.822514 430.726512 622.269051 435.077733 623.245855a30.63615 30.63615 0 0 0 14.740872 0.088801c4.395622-1.021205 435.077733-110.512142 435.077733-623.290256V150.114916a31.390954 31.390954 0 0 0-10.434051-23.487715z m-83.827611 270.663727c0 396.405143-297.525859 499.324848-348.142107 513.976919C470.511367 896.526975 173.029908 793.56287 173.029908 397.290928v-186.924917c68.731537 1.95361 232.301939-4.884024 348.319708-100.744094 117.083374 95.726869 279.765772 102.564503 348.053306 100.744094v186.924917z" p-id="4391"></path><path d="M512.06997 568.142965c-89.288838 0-161.883194-72.594356-161.883193-161.838793s72.638756-161.883194 161.883193-161.883194 161.838793 72.638756 161.838794 161.883194-72.594356 161.838793-161.838794 161.838793z m0-237.629965A75.924372 75.924372 0 0 0 436.234398 406.304172a75.835572 75.835572 0 1 0 75.835572-75.791172z" p-id="4392"></path><path d="M566.460237 739.794207a40.670599 40.670599 0 0 1-81.252398 0v-195.538559a40.581799 40.581799 0 1 1 81.252398 0v195.538559z" p-id="4393"></path><path d="M672.354756 642.069328a38.184187 38.184187 0 0 1-38.272988 38.139787h-74.592365a38.184187 38.184187 0 0 1 0-76.368375h74.592365c21.090103 0 38.272988 17.049684 38.272988 38.228588z" p-id="4394"></path></svg>