<?xml version="1.0" standalone="no"?><!DOCTYPE svg PUBLIC "-//W3C//DTD SVG 1.1//EN" "http://www.w3.org/Graphics/SVG/1.1/DTD/svg11.dtd"><svg t="1527142922024" class="icon" style="" viewBox="0 0 1024 1024" version="1.1" xmlns="http://www.w3.org/2000/svg" p-id="4611" xmlns:xlink="http://www.w3.org/1999/xlink" width="48" height="48"><defs><style type="text/css"></style></defs><path d="M935.001 89.945h-846.001c-38.103 0-60.463 21.729-60.463 60.463v574.078c0 38.735 22.357 60.463 60.463 60.463h362.617v90.694h-181.387c-19.052 0-30.231 10.864-30.231 30.231v30.231h543.846v-30.389c0-19.366-11.18-30.231-30.231-30.231h-181.23v-90.694h362.617c38.103 0 60.463-21.729 60.463-60.463v-573.92c0-38.735-22.357-60.463-60.463-60.463v0 0 0zM477.438 704.803c0-19.366 15.431-34.955 34.482-34.955s34.482 15.746 34.482 34.955c0 19.366-15.431 35.111-34.482 35.111-19.052-0.158-34.482-15.746-34.482-35.111v0 0 0zM88.999 633.791v-483.385h846.001v483.385h-846.001zM88.999 633.791z" p-id="4612"></path></svg>