<?xml version="1.0" standalone="no"?><!DOCTYPE svg PUBLIC "-//W3C//DTD SVG 1.1//EN" "http://www.w3.org/Graphics/SVG/1.1/DTD/svg11.dtd"><svg t="1527140601473" class="icon" style="" viewBox="0 0 1024 1024" version="1.1" xmlns="http://www.w3.org/2000/svg" p-id="2413" xmlns:xlink="http://www.w3.org/1999/xlink" width="48" height="48"><defs><style type="text/css"></style></defs><path d="M996.673894 389.381633c-90.941087-13.897667-160.604401-92.452738-160.604401-187.278962 0-25.575306 5.070117-49.965986 14.255736-72.224832-53.232705-51.407435-117.211365-90.901928-188.034964-114.410665-34.356643 48.128721-90.667331 79.50757-154.30803 79.50757-63.100243 0-118.994302-30.848976-153.42785-78.286254-70.306075 23.958175-133.756274 63.703846-186.495443 115.215702 8.665625 21.709924 13.433765 45.397166 13.433765 70.198831 0 93.77142-68.123794 171.628697-157.579335 186.78825-9.240652 39.621846-14.144259 81.011813-14.144259 123.59593 0 40.624087 4.46334 80.161266 12.89578 118.113417 90.069726 14.643792 158.827814 92.788582 158.827814 186.996035 0 26.238881-5.334701 51.231399-14.977519 73.953794 53.22318 52.426256 117.478417 92.81751 188.761686 116.982765 34.293495-48.648363 90.914275-80.428319 154.959256-80.428319 64.043217 0 120.661881 31.777487 154.955729 80.423027 70.371339-23.856575 133.900207-63.517226 186.720869-114.968758-10.188918-23.255089-15.843235-48.948223-15.843235-75.962509 0-95.256966 70.299373-174.091083 161.846884-187.460643 8.365412-37.809628 12.786771-77.191233 12.786771-117.648809 0-42.408435-4.862684-83.632949-14.029254-123.10557z m-485.744909 294.462981c-62.94608 0-118.440088-31.907662-151.190182-80.430788l-54.915101 29.945866-34.480115-63.230418 61.657031-33.621807c-2.194981-11.308281-3.347152-22.988742-3.347153-34.938373 0-100.668219 81.607654-182.27552 182.27552-182.27552s182.27552 81.607301 182.27552 182.27552-81.607301 182.27552-182.27552 182.27552z" p-id="2414"></path></svg>
