<?xml version="1.0" standalone="no"?><!DOCTYPE svg PUBLIC "-//W3C//DTD SVG 1.1//EN" "http://www.w3.org/Graphics/SVG/1.1/DTD/svg11.dtd"><svg t="1527916837529" class="icon" style="" viewBox="0 0 1039 1024" version="1.1" xmlns="http://www.w3.org/2000/svg" p-id="3699" xmlns:xlink="http://www.w3.org/1999/xlink" width="48.703125" height="48"><defs><style type="text/css"></style></defs><path d="M28.214601 1016.917579c-15.443612 0-28.132949-12.492603-28.132949-27.837848v-91.579635c0-180.700096 109.580788-340.939866 279.067051-408.222863l29.214986-11.6073-24.788473-19.279923c-63.053218-49.183477-99.15389-122.76196-99.15389-201.750625C184.421326 115.187704 300.395965 0 442.929683 0S701.43804 115.187704 701.43804 256.639385c0 78.988665-36.199039 152.46878-99.15389 201.750625l-16.722382 13.082805c-24.788473 22.034198-73.381748 36.985975-136.730068 41.904322h-2.459174c-1.082037 0-2.164073-0.098367-3.246109-0.098367-9.836695 0-20.066859 0.393468-30.493756 1.278771l-11.115466 0.885302-4.918348 0.688569c-194.176369 23.116234-340.349664 187.093948-340.349664 381.368684v63.741787H481.096061l2.360807 4.721614c6.393852 12.886071 13.57464 25.575408 21.542364 37.576176l8.754658 13.279539H28.214601zM442.929683 55.577329c-111.548127 0-202.242459 90.202498-202.242459 201.062056s90.792699 201.062056 202.242459 201.062056c111.548127 0 202.340826-90.202498 202.340826-201.062056-0.098367-110.859558-90.792699-201.062056-202.340826-201.062056z" p-id="3700"></path><path d="M442.929683 4.918348C303.051873 4.918348 189.339673 117.843612 189.339673 256.639385c0 77.414793 35.510471 149.517771 97.284919 197.815946l31.477425 24.591739-37.182709 14.755043C113.302017 560.396542 5 718.865706 5 897.500096v91.579635c0 12.59097 10.426897 22.9195 23.214601 22.919501h476.391163l-3.737945-5.606917c-8.06609-12.197502-15.345245-24.985207-21.837464-38.166378l-0.983669-2.065706H51.330836v-68.660135c0-196.832277 148.042267-362.875696 344.382709-386.188665l5.016714-0.688568 11.3122-0.98367c10.525264-0.786936 20.853794-1.27877 30.887224-1.27877 1.180403 0 2.26244 0 3.442843 0.098367h1.868973c62.463016-4.918348 109.974256-19.37829 133.975792-40.822287L599.136407 454.455331c61.872815-48.298175 97.284918-120.401153 97.284919-197.914313C696.421326 117.843612 582.709126 4.918348 442.929683 4.918348z m0 457.701441c-114.302402 0-207.160807-92.366571-207.160807-205.980404S328.725648 50.658982 442.929683 50.658982c114.302402 0 207.259174 92.366571 207.259174 205.980403-0.098367 113.613833-93.055139 205.980403-207.259174 205.980404z" p-id="3701"></path><path d="M833.938329 1024c-10.721998 0-21.64073-4.623247-28.42805-12.197502-7.869356-8.557925-32.559462-30.788857-51.839386-30.788857-18.984822 0-43.674928 21.837464-51.544284 30.198655-6.78732 7.377522-17.607685 11.902402-28.231316 11.902401-4.819981 0-9.541595-0.885303-13.869741-2.655907l-0.295101-0.098367-66.20096-36.887608-0.295101-0.196734c-14.164841-10.32853-19.575024-28.821518-12.886071-43.871662 0-0.098367 5.508549-12.984438 5.508549-24.296638 0-35.117003-28.624784-63.741787-63.741786-63.741787h-2.26244c-13.673007 0-24.198271-10.918732-27.542748-28.329683-0.590202-3.049376-5.606916-30.395389-5.606916-52.527954 0-22.034198 5.016715-49.478578 5.606916-52.527954 3.344476-17.509318 13.673007-28.42805 27.14928-28.428049h2.655908c35.117003 0 63.741787-28.624784 63.741786-63.741787 0-10.32853-4.623247-21.935831-5.508549-24.296638-6.688953-15.246878-1.573871-33.838232 12.099135-43.28146l1.180404-0.786936 68.4634-37.576177 0.196734-0.098367c4.918348-2.065706 9.639962-3.049376 14.85341-3.049375 10.623631 0 21.443996 4.52488 28.231317 11.705667 9.738329 9.935062 32.95293 28.919885 50.757348 28.919885 22.427666 0 50.167147-28.132949 50.462248-28.42805 6.885687-7.180788 17.410951-11.410567 28.034582-11.410567 4.819981 0 9.541595 0.885303 13.869741 2.655908l0.295101 0.098367 67.381364 37.281076 0.196734 0.196734c14.164841 10.32853 19.673391 28.723151 12.984438 43.773295-0.590202 1.27877-5.606916 13.57464-5.606917 24.296638 0 35.117003 28.624784 63.741787 63.741787 63.741787h2.26244c13.673007 0 24.198271 10.918732 27.542747 28.329683 0.98367 5.016715 5.606916 31.182325 5.606917 52.527953s-4.623247 47.511239-5.606917 52.527954c-3.344476 17.509318-13.771374 28.42805-27.149279 28.42805h-2.655908c-35.117003 0-63.741787 28.624784-63.741787 63.741787 0 9.738329 3.836311 20.165226 5.50855 24.198271 6.688953 15.246878 1.573871 33.838232-12.099136 43.28146l-1.180403 0.786936-66.496062 36.789241-0.196734 0.098367c-5.410183 2.754275-10.033429 3.737944-15.345244 3.737944z m-80.267436-91.874736c17.312584 0 35.903939 7.279155 55.282229 21.739097 7.869356 5.902017 14.361575 11.804035 18.394621 15.738713l2.951008 2.852642 53.511624-29.608454-1.377138-4.426513c-2.459174-7.279155-5.311816-18.492988-5.311815-30.100288 0-49.773679 37.182709-92.268204 86.464553-98.662056l4.033045-0.491834 0.590202-4.033046c1.475504-9.541595 3.24611-23.312968 3.246109-34.428434 0-11.017099-1.770605-24.788473-3.246109-34.428434l-0.590202-4.033045-4.033045-0.491835c-49.281844-6.393852-86.464553-48.888377-86.464553-98.662056 0-11.607301 2.852642-22.722767 5.311815-30.100288l1.377138-4.328146-52.921422-29.411719-2.951009 2.754274c-3.836311 3.639577-10.131796 9.04976-18.099519 14.656677-18.886455 13.279539-36.887608 20.066859-53.511624 20.066859-16.820749 0-34.920269-6.885687-54.003458-20.460327-7.770989-5.508549-14.263208-11.213833-18.296254-15.050144l-2.852641-2.754275-54.987128 30.198655 1.377137 4.328146c2.459174 7.279155 5.311816 18.492988 5.311816 30.001921 0 49.773679-37.182709 92.268204-86.464553 98.662056l-4.033046 0.491835-0.590201 4.033045c-1.475504 9.541595-3.24611 23.214601-3.24611 34.428434 0 11.115466 1.770605 24.788473 3.24611 34.428435l0.590201 4.033045 4.033046 0.491834c49.281844 6.393852 86.464553 48.888377 86.464553 98.662056 0 11.705668-2.852642 22.821134-5.311816 30.198655l-1.377137 4.229779 51.445917 28.821518 2.951009-2.852642c3.147743-3.049376 9.738329-9.148127 18.197887-15.345245 19.37829-14.066475 37.772911-21.148895 54.88876-21.148895z" p-id="3702"></path><path d="M1012.769452 719.06244c-2.852642-15.050144-11.508934-24.395005-22.722766-24.395005h-2.26244c-37.871278 0-68.660134-30.788857-68.660135-68.660134 0-12.394236 5.902017-26.067243 6.000385-26.263977 5.80365-12.984438 0.98367-28.919885-11.3122-37.871278l-66.889529-36.985975c-3.737944-1.475504-7.770989-2.26244-12.000769-2.26244-9.344861 0-18.492988 3.737944-24.493372 9.935063-0.295101 0.295101-29.313353 29.903554-53.905091 29.903554-24.690106 0-54.003458-30.100288-54.298559-30.395389-5.902017-6.295485-15.443612-10.131796-24.690106-10.131797-4.52488 0-8.656292 0.885303-12.984438 2.655908l-68.069932 37.379443-0.885303 0.590202c-11.705668 8.164457-16.230548 24.198271-10.426897 37.379443 1.377137 3.344476 5.902017 15.246878 5.902017 26.16561 0 37.871278-30.788857 68.660134-68.660134 68.660134h-2.655908c-10.918732 0-19.476657 9.344861-22.329299 24.395005-0.196734 1.180403-5.508549 29.41172-5.508549 51.544284 0 21.739097 4.918348 48.593276 5.508549 51.642652 2.852642 15.050144 11.508934 24.395005 22.722767 24.395004h2.26244c37.871278 0 68.660134 30.788857 68.660134 68.660135 0 12.59097-6.000384 26.263977-6.000384 26.263977-5.80365 12.984438-0.98367 28.919885 11.3122 37.871277l65.610758 36.592508c3.737944 1.475504 7.770989 2.26244 12.000769 2.26244 9.344861 0 18.689721-3.934678 24.591739-10.426898 0.295101-0.295101 30.100288-31.772526 55.183861-31.772526 25.477041 0 55.183862 32.067627 55.478963 32.362728 5.902017 6.492219 15.443612 10.525264 24.788472 10.525264 4.623247 0 8.557925-0.885303 13.673007-3.147742l66.102594-36.592508 0.885302-0.590201c11.705668-8.164457 16.230548-24.198271 10.328531-37.379443-1.770605-4.328146-5.902017-15.541979-5.902018-26.16561 0-37.871278 30.788857-68.660134 68.660135-68.660135h2.655908c10.918732 0 19.476657-9.344861 22.329298-24.395004 0.885303-4.918348 5.508549-30.592123 5.50855-51.642652 0-20.755427-4.623247-46.52757-5.50855-51.445917z m-39.641882 86.759654L971.947166 813.494717l-7.770989 0.983669c-46.822671 6.098751-82.234774 46.429203-82.234775 93.842075 0 10.918732 2.754275 21.542363 5.016715 28.526417l2.754275 8.164457-60.298943 33.346398-5.50855-5.410183c-3.934678-3.836311-10.131796-9.541595-17.804419-15.246878-18.492988-13.771374-36.199039-20.755427-52.33122-20.755427-16.033814 0-33.543132 6.885687-51.937752 20.36196-8.262824 6.098751-14.656676 12.000768-17.706052 14.951777l-5.508549 5.410182-58.233237-32.559462 2.655907-8.164457c2.26244-6.984054 5.115082-17.607685 5.115082-28.624784 0-47.314505-35.313737-87.644957-82.234774-93.842075l-7.672623-0.983669-1.180403-7.672623c-1.475504-9.738329-3.344476-23.804803-3.344477-35.21537 0-11.508934 1.770605-25.477041 3.344477-35.117003l1.180403-7.672622 7.672623-0.98367c46.822671-6.098751 82.234774-46.429203 82.234774-93.842075 0-10.918732-2.754275-21.542363-5.016715-28.526416l-2.754274-8.164458 61.67608-33.838232 5.50855 5.213448c3.934678 3.737944 10.230163 9.246494 17.804419 14.55831 18.197887 12.984438 35.313737 19.476657 51.150816 19.476657 15.640346 0 32.657829-6.393852 50.658982-19.181556 7.770989-5.410183 13.869741-10.721998 17.607685-14.263209l5.508549-5.115081 59.610375 33.051296-2.655908 8.164458c-2.26244 6.984054-5.016715 17.706052-5.016715 28.624783 0 47.314505 35.313737 87.644957 82.234775 93.842075l7.770989 0.98367 1.180404 7.672622c1.475504 9.738329 3.344476 23.804803 3.344476 35.21537-0.295101 11.3122-2.164073 25.378674-3.639577 35.117003z" p-id="3703"></path><path d="M753.867627 866.317771c-52.921422 0-96.006148-43.084726-96.006148-96.006148s43.084726-96.006148 96.006148-96.006147 96.006148 43.084726 96.006148 96.006147c0 53.019789-43.084726 96.006148-96.006148 96.006148z m0-146.173295c-27.641114 0-50.167147 22.526033-50.167147 50.167147s22.526033 50.167147 50.167147 50.167147 50.167147-22.526033 50.167147-50.167147-22.526033-50.167147-50.167147-50.167147z" p-id="3704"></path><path d="M753.867627 679.223823c-50.167147 0-91.0878 40.822286-91.0878 91.0878 0 50.265514 40.822286 91.0878 91.0878 91.087801 50.265514 0 91.0878-40.822286 91.0878-91.087801 0-50.167147-40.822286-91.0878-91.0878-91.0878z m0 146.271662c-30.395389 0-55.085495-24.690106-55.085494-55.085495s24.690106-55.085495 55.085494-55.085494 55.085495 24.690106 55.085495 55.085494c0 30.297022-24.690106 55.085495-55.085495 55.085495z" p-id="3705"></path></svg>
